<?xml version="1.0" encoding="UTF-8" standalone="no"?>
<!DOCTYPE svg PUBLIC "-//W3C//DTD SVG 1.1//EN" "http://www.w3.org/Graphics/SVG/1.1/DTD/svg11.dtd">
<svg width="100%" height="100%" viewBox="0 0 800 600" version="1.1" xmlns="http://www.w3.org/2000/svg" xmlns:xlink="http://www.w3.org/1999/xlink" xml:space="preserve" xmlns:serif="http://www.serif.com/" style="fill-rule:evenodd;clip-rule:evenodd;stroke-linecap:round;stroke-linejoin:round;stroke-miterlimit:1.5;">
    <g>
        <g transform="matrix(1.57622,0,0,1.46234,-203.724,-109.262)">
            <path d="M354.869,133.979C359.448,124.815 368.32,119.094 377.977,119.078C387.634,119.061 396.522,124.75 401.13,133.898C437.871,206.845 508.419,346.914 539.123,407.875C542.246,414.076 542.109,421.591 538.762,427.654C535.415,433.718 529.353,437.433 522.808,437.433C457.073,437.433 304.828,437.433 236.939,437.433C229.849,437.433 223.281,433.415 219.645,426.853C216.01,420.292 215.843,412.153 219.206,405.425C250.275,343.258 318.881,205.987 354.869,133.979Z" style="fill:rgb(128,128,128);"/>
        </g>
        <g transform="matrix(1.57622,0,0,1.46234,-203.724,-120.96)">
            <path d="M354.869,133.979C359.448,124.815 368.32,119.094 377.977,119.078C387.634,119.061 396.522,124.75 401.13,133.898C437.871,206.845 508.419,346.914 539.123,407.875C542.246,414.076 542.109,421.591 538.762,427.654C535.415,433.718 529.353,437.433 522.808,437.433C457.073,437.433 304.828,437.433 236.939,437.433C229.849,437.433 223.281,433.415 219.645,426.853C216.01,420.292 215.843,412.153 219.206,405.425C250.275,343.258 318.881,205.987 354.869,133.979Z" style="fill:url(#_Linear1);stroke:rgb(159,159,159);stroke-width:1.39px;"/>
        </g>
        <g transform="matrix(1.3405,0,0,1.27477,-113.858,-64.5545)">
            <path d="M368.128,119.007C370.105,115.257 373.86,112.93 377.938,112.927C382.015,112.924 385.773,115.246 387.755,118.993C419.581,179.15 519.507,368.03 549.443,424.614C551.226,427.985 551.179,432.097 549.32,435.422C547.461,438.747 544.066,440.789 540.398,440.789L213.309,440.789C210.203,440.789 207.33,439.062 205.754,436.248C204.178,433.435 204.136,429.954 205.642,427.099C233.752,373.798 335.912,180.092 368.128,119.007Z" style="fill:url(#_Radial2);"/>
            <path d="M366.744,118.2L204.258,426.292C202.48,429.663 202.531,433.771 204.391,437.092C206.251,440.414 209.643,442.453 213.309,442.453L540.398,442.453C544.627,442.453 548.54,440.099 550.684,436.265C552.827,432.432 552.881,427.692 550.825,423.805C520.89,367.221 420.963,178.341 389.138,118.184C386.876,113.91 382.588,111.26 377.937,111.264C373.285,111.267 369,113.922 366.744,118.2ZM368.128,119.007C370.105,115.257 373.86,112.93 377.938,112.927C382.015,112.924 385.773,115.246 387.755,118.993C419.581,179.15 519.507,368.03 549.443,424.614C551.226,427.985 551.179,432.097 549.32,435.422C547.461,438.747 544.066,440.789 540.398,440.789L213.309,440.789C210.203,440.789 207.33,439.062 205.754,436.248C204.178,433.435 204.136,429.954 205.642,427.099C233.752,373.798 335.912,180.092 368.128,119.007Z" style="fill:rgb(159,159,159);"/>
        </g>
        <g id="Calque1">
            <path d="M215.452,383.166C230.466,369.999 246.285,358.42 262.16,350.35C311.319,325.361 431.569,280.784 524.249,299.815L622.672,476.73C625.062,481.028 625,486.269 622.507,490.508C620.015,494.747 615.465,497.35 610.547,497.35L172.083,497.35C167.92,497.35 164.068,495.148 161.956,491.561C159.844,487.974 159.786,483.538 161.805,479.898L215.452,383.166Z" style="fill:url(#_Linear3);"/>
        </g>
        <use xlink:href="#_Image4" x="351.445" y="171.846" width="82.642px" height="301.679px" transform="matrix(0.995683,0,0,0.998937,0,0)"/>
    </g>
    <defs>
        <linearGradient id="_Linear1" x1="0" y1="0" x2="1" y2="0" gradientUnits="userSpaceOnUse" gradientTransform="matrix(2.74399e-14,448.128,-448.128,2.74399e-14,554.011,65.2406)"><stop offset="0" style="stop-color:rgb(235,235,235);stop-opacity:1"/><stop offset="1" style="stop-color:rgb(163,163,163);stop-opacity:1"/></linearGradient>
        <radialGradient id="_Radial2" cx="0" cy="0" r="1" gradientUnits="userSpaceOnUse" gradientTransform="matrix(10.9704,-246.663,234.567,11.5361,369.508,364.152)"><stop offset="0" style="stop-color:rgb(241,214,82);stop-opacity:1"/><stop offset="0" style="stop-color:rgb(240,212,83);stop-opacity:1"/><stop offset="0.52" style="stop-color:rgb(241,216,85);stop-opacity:1"/><stop offset="0.66" style="stop-color:rgb(245,228,89);stop-opacity:1"/><stop offset="0.77" style="stop-color:rgb(251,243,95);stop-opacity:1"/><stop offset="1" style="stop-color:rgb(252,247,97);stop-opacity:1"/></radialGradient>
        <linearGradient id="_Linear3" x1="0" y1="0" x2="1" y2="0" gradientUnits="userSpaceOnUse" gradientTransform="matrix(1.2312e-14,201.07,-201.07,1.2312e-14,531.866,293.864)"><stop offset="0" style="stop-color:rgb(236,200,7);stop-opacity:1"/><stop offset="0.9" style="stop-color:rgb(226,172,11);stop-opacity:1"/><stop offset="0.95" style="stop-color:rgb(226,172,11);stop-opacity:1"/><stop offset="1" style="stop-color:rgb(237,202,7);stop-opacity:1"/></linearGradient>
       
    </defs>
</svg>
